<?xml version="1.0" encoding="utf-8"?>
<!-- Svg Vector Icons : http://www.onlinewebfonts.com/icon -->
<!DOCTYPE svg PUBLIC "-//W3C//DTD SVG 1.1//EN" "http://www.w3.org/Graphics/SVG/1.1/DTD/svg11.dtd">
<svg version="1.1" xmlns="http://www.w3.org/2000/svg" xmlns:xlink="http://www.w3.org/1999/xlink" x="0px" y="0px" viewBox="0 0 1000 1000" enable-background="new 0 0 1000 1000" xml:space="preserve">
<metadata> Svg Vector Icons : http://www.onlinewebfonts.com/icon </metadata>
<g><g transform="translate(0.000000,512.000000) scale(0.100000,-0.100000)"><path d="M4638.6,4692.6c-367.7-40.2-854.2-203-1172.1-390.7C2736.7,3871,2236.9,3204.5,2031.9,2390.5c-67-264.3-105.3-618.6-88.1-827.4l11.5-159l-118.7-57.5C1036,963.6,436.5,237.8,202.9-627.9c-281.5-1045.7,24.9-2177.6,794.8-2949.5C2022.4-4600.1,3636.9-4766.8,4826.3-3970c86.2,57.5,164.7,105.3,174.3,105.3s86.2-47.9,172.4-103.4c1191.3-798.6,2805.8-632,3830.5,390.7c490.3,492.2,804.4,1149.2,879.1,1834.8c82.4,769.9-128.3,1541.8-593.7,2166.1c-281.5,377.3-748.9,758.4-1143.4,934.6l-101.5,44l13.4,168.5c7.7,93.9,1.9,262.4-11.5,386.9C7865.8,3666.1,6350.8,4882.2,4638.6,4692.6z M5312.8,3461.1c381.1-67,701-233.7,982.5-515.2c201.1-201.1,340.9-417.5,429-656.9c59.4-168.5,114.9-434.8,114.9-563.1v-74.7h-90c-153.2-1.9-496-53.6-683.7-103.4c-339-93.8-624.4-224.1-913.6-423.3l-147.5-99.6L4837.8,1136c-436.7,291.1-955.7,469.2-1488.1,507.5l-187.7,13.4v88.1c1.9,249,132.1,653.1,291.1,896.3C3859.1,3265.8,4590.7,3587.5,5312.8,3461.1z M2453.3-30.4c111.1-174.3,199.2-279.6,392.6-473.1c266.2-268.1,473.1-421.3,766.1-572.7l170.5-88.1l1.9-300.7c5.7-455.8,88.1-808.2,296.9-1243l111.1-233.6l-137.9-76.6c-568.8-321.8-1287-306.4-1852,38.3c-331.3,201.1-633.9,570.7-764.2,928.9c-294.9,815.9-9.6,1673.9,718.2,2168.1c63.2,42.1,124.5,76.6,134.1,76.6C2302,193.7,2374.8,92.2,2453.3-30.4z M7861.9,105.6c702.9-467.3,990.2-1354.1,701-2156.6c-130.2-358.2-432.8-727.8-764.2-928.9c-565-344.7-1283.2-360.1-1852-38.3l-137.9,76.6l103.4,214.5c214.5,448.2,300.7,806.3,302.6,1266l1.9,306.4l149.4,72.8C6831.5-852,7241.4-482.4,7553.6-9.3c74.7,113,143.6,204.9,153.2,204.9C7716.4,195.6,7785.3,155.4,7861.9,105.6z"/></g></g>
</svg>